<svg width="15" height="15" viewBox="0 0 15 15" fill="none" xmlns="http://www.w3.org/2000/svg">
<path d="M10.8333 7.5C10.8333 7.69891 10.7455 7.88968 10.5893 8.03033C10.433 8.17098 10.221 8.25 10 8.25H5C4.77899 8.25 4.56702 8.17098 4.41074 8.03033C4.25446 7.88968 4.16667 7.69891 4.16667 7.5C4.16667 7.30109 4.25446 7.11032 4.41074 6.96967C4.56702 6.82902 4.77899 6.75 5 6.75H10C10.221 6.75 10.433 6.82902 10.5893 6.96967C10.7455 7.11032 10.8333 7.30109 10.8333 7.5ZM7.5 9.75H5C4.77899 9.75 4.56702 9.82902 4.41074 9.96967C4.25446 10.1103 4.16667 10.3011 4.16667 10.5C4.16667 10.6989 4.25446 10.8897 4.41074 11.0303C4.56702 11.171 4.77899 11.25 5 11.25H7.5C7.72101 11.25 7.93297 11.171 8.08926 11.0303C8.24554 10.8897 8.33333 10.6989 8.33333 10.5C8.33333 10.3011 8.24554 10.1103 8.08926 9.96967C7.93297 9.82902 7.72101 9.75 7.5 9.75ZM15 2.25V12.75C15 13.3467 14.7366 13.919 14.2678 14.341C13.7989 14.7629 13.163 15 12.5 15H2.5C1.83696 15 1.20107 14.7629 0.732233 14.341C0.263392 13.919 0 13.3467 0 12.75V2.25C0 1.65326 0.263392 1.08097 0.732233 0.65901C1.20107 0.237053 1.83696 0 2.5 0H12.5C13.163 0 13.7989 0.237053 14.2678 0.65901C14.7366 1.08097 15 1.65326 15 2.25ZM9.16667 3C9.38768 3 9.59964 2.92098 9.75592 2.78033C9.9122 2.63968 10 2.44891 10 2.25V1.5H5V2.25C5 2.44891 5.0878 2.63968 5.24408 2.78033C5.40036 2.92098 5.61232 3 5.83333 3H9.16667ZM13.3333 2.25C13.3333 2.05109 13.2455 1.86032 13.0893 1.71967C12.933 1.57902 12.721 1.5 12.5 1.5H11.6667V2.25C11.6667 2.84674 11.4033 3.41903 10.9344 3.84099C10.4656 4.26295 9.82971 4.5 9.16667 4.5H5.83333C5.17029 4.5 4.53441 4.26295 4.06557 3.84099C3.59673 3.41903 3.33333 2.84674 3.33333 2.25V1.5H2.5C2.27899 1.5 2.06702 1.57902 1.91074 1.71967C1.75446 1.86032 1.66667 2.05109 1.66667 2.25V12.75C1.66667 12.9489 1.75446 13.1397 1.91074 13.2803C2.06702 13.421 2.27899 13.5 2.5 13.5H12.5C12.721 13.5 12.933 13.421 13.0893 13.2803C13.2455 13.1397 13.3333 12.9489 13.3333 12.75V2.25Z" fill="#59598E"/>
</svg>
