<svg width="40" height="40" viewBox="0 0 40 40" fill="none" xmlns="http://www.w3.org/2000/svg">
<path d="M23.3332 33.3333C23.3332 33.7754 23.1576 34.1993 22.845 34.5118C22.5325 34.8244 22.1085 35 21.6665 35H11.6665C10.3404 35 9.06865 34.4732 8.13097 33.5355C7.19329 32.5979 6.6665 31.3261 6.6665 30V10C6.6665 8.67392 7.19329 7.40215 8.13097 6.46447C9.06865 5.52678 10.3404 5 11.6665 5H21.6665C22.1085 5 22.5325 5.17559 22.845 5.48816C23.1576 5.80072 23.3332 6.22464 23.3332 6.66667C23.3332 7.10869 23.1576 7.53262 22.845 7.84518C22.5325 8.15774 22.1085 8.33333 21.6665 8.33333H11.6665C11.2245 8.33333 10.8006 8.50893 10.488 8.82149C10.1754 9.13405 9.99984 9.55797 9.99984 10V30C9.99984 30.442 10.1754 30.866 10.488 31.1785C10.8006 31.4911 11.2245 31.6667 11.6665 31.6667H21.6665C22.1085 31.6667 22.5325 31.8423 22.845 32.1548C23.1576 32.4674 23.3332 32.8913 23.3332 33.3333ZM34.3332 19L27.6665 12.3333C27.5383 12.189 27.3819 12.0725 27.2069 11.9908C27.032 11.9091 26.8422 11.864 26.6493 11.8584C26.4563 11.8527 26.2642 11.8865 26.0848 11.9577C25.9053 12.029 25.7424 12.1362 25.6058 12.2727C25.4693 12.4092 25.3622 12.5722 25.2909 12.7516C25.2197 12.931 25.1858 13.1231 25.1915 13.3161C25.1972 13.5091 25.2423 13.6988 25.3239 13.8738C25.4056 14.0487 25.5222 14.2051 25.6665 14.3333L29.6665 18.3333H16.6665C16.2245 18.3333 15.8006 18.5089 15.488 18.8215C15.1754 19.134 14.9998 19.558 14.9998 20C14.9998 20.442 15.1754 20.8659 15.488 21.1785C15.8006 21.4911 16.2245 21.6667 16.6665 21.6667H29.6665L25.6665 25.6667C25.4265 25.9367 25.2987 26.2883 25.3094 26.6494C25.32 27.0106 25.4682 27.354 25.7237 27.6095C25.9792 27.865 26.3226 28.0132 26.6837 28.0238C27.0449 28.0344 27.3964 27.9067 27.6665 27.6667L34.3332 21C34.5978 20.7345 34.7464 20.3749 34.7464 20C34.7464 19.6251 34.5978 19.2655 34.3332 19Z" fill="#59598E"/>
</svg>
