<svg width="20" height="20" viewBox="0 0 20 20" fill="none" xmlns="http://www.w3.org/2000/svg">
<g clip-path="url(#clip0_6_4520)">
<path d="M13.8916 10.941C15.0333 11.716 15.8333 12.766 15.8333 14.166V16.666H19.1666V14.166C19.1666 12.3493 16.1916 11.2743 13.8916 10.941Z" fill="#59598E"/>
<path d="M12.4999 9.99937C14.3416 9.99937 15.8333 8.5077 15.8333 6.66604C15.8333 4.82437 14.3416 3.3327 12.4999 3.3327C12.1083 3.3327 11.7416 3.41604 11.3916 3.5327C12.0833 4.39104 12.4999 5.4827 12.4999 6.66604C12.4999 7.84937 12.0833 8.94104 11.3916 9.79937C11.7416 9.91604 12.1083 9.99937 12.4999 9.99937Z" fill="#59598E"/>
<path d="M7.50033 9.99937C9.34199 9.99937 10.8337 8.5077 10.8337 6.66604C10.8337 4.82437 9.34199 3.3327 7.50033 3.3327C5.65866 3.3327 4.16699 4.82437 4.16699 6.66604C4.16699 8.5077 5.65866 9.99937 7.50033 9.99937ZM7.50033 4.99937C8.41699 4.99937 9.16699 5.74937 9.16699 6.66604C9.16699 7.5827 8.41699 8.3327 7.50033 8.3327C6.58366 8.3327 5.83366 7.5827 5.83366 6.66604C5.83366 5.74937 6.58366 4.99937 7.50033 4.99937Z" fill="#59598E"/>
<path d="M7.50016 10.8329C5.27516 10.8329 0.833496 11.9496 0.833496 14.1662V16.6662H14.1668V14.1662C14.1668 11.9496 9.72516 10.8329 7.50016 10.8329ZM12.5002 14.9996H2.50016V14.1746C2.66683 13.5746 5.25016 12.4996 7.50016 12.4996C9.75016 12.4996 12.3335 13.5746 12.5002 14.1662V14.9996Z" fill="#59598E"/>
</g>
<defs>
<clipPath id="clip0_6_4520">
<rect width="20" height="20" fill="white"/>
</clipPath>
</defs>
</svg>
