<svg width="18" height="18" viewBox="0 0 18 18" fill="none" xmlns="http://www.w3.org/2000/svg">
<path d="M15.1915 9.81703C15.2249 9.55036 15.2499 9.2837 15.2499 9.00036C15.2499 8.71703 15.2249 8.45036 15.1915 8.1837L16.9499 6.8087C17.1082 6.6837 17.1499 6.4587 17.0499 6.27536L15.3832 3.39203C15.3082 3.2587 15.1665 3.1837 15.0165 3.1837C14.9665 3.1837 14.9165 3.19203 14.8749 3.2087L12.7999 4.04203C12.3665 3.7087 11.8999 3.4337 11.3915 3.22536L11.0749 1.01703C11.0499 0.81703 10.8749 0.66703 10.6665 0.66703H7.3332C7.12487 0.66703 6.94987 0.81703 6.92487 1.01703L6.6082 3.22536C6.09987 3.4337 5.6332 3.71703 5.19987 4.04203L3.12487 3.2087C3.07487 3.19203 3.02487 3.1837 2.97487 3.1837C2.8332 3.1837 2.69153 3.2587 2.61653 3.39203L0.949866 6.27536C0.841533 6.4587 0.891533 6.6837 1.04987 6.8087L2.8082 8.1837C2.77487 8.45036 2.74987 8.72536 2.74987 9.00036C2.74987 9.27536 2.77487 9.55036 2.8082 9.81703L1.04987 11.192C0.891533 11.317 0.849866 11.542 0.949866 11.7254L2.61653 14.6087C2.69153 14.742 2.8332 14.817 2.9832 14.817C3.0332 14.817 3.0832 14.8087 3.12487 14.792L5.19987 13.9587C5.6332 14.292 6.09987 14.567 6.6082 14.7754L6.92487 16.9837C6.94987 17.1837 7.12487 17.3337 7.3332 17.3337H10.6665C10.8749 17.3337 11.0499 17.1837 11.0749 16.9837L11.3915 14.7754C11.8999 14.567 12.3665 14.2837 12.7999 13.9587L14.8749 14.792C14.9249 14.8087 14.9749 14.817 15.0249 14.817C15.1665 14.817 15.3082 14.742 15.3832 14.6087L17.0499 11.7254C17.1499 11.542 17.1082 11.317 16.9499 11.192L15.1915 9.81703ZM13.5415 8.39203C13.5749 8.65036 13.5832 8.82536 13.5832 9.00036C13.5832 9.17536 13.5665 9.3587 13.5415 9.6087L13.4249 10.5504L14.1665 11.1337L15.0665 11.8337L14.4832 12.842L13.4249 12.417L12.5582 12.067L11.8082 12.6337C11.4499 12.9004 11.1082 13.1004 10.7665 13.242L9.8832 13.6004L9.74987 14.542L9.5832 15.667H8.41653L8.2582 14.542L8.12487 13.6004L7.24153 13.242C6.8832 13.092 6.54987 12.9004 6.21653 12.6504L5.4582 12.067L4.57487 12.4254L3.51653 12.8504L2.9332 11.842L3.8332 11.142L4.57487 10.5587L4.4582 9.61703C4.4332 9.3587 4.41653 9.16703 4.41653 9.00036C4.41653 8.8337 4.4332 8.64203 4.4582 8.39203L4.57487 7.45036L3.8332 6.86703L2.9332 6.16703L3.51653 5.1587L4.57487 5.5837L5.44153 5.9337L6.19153 5.36703C6.54987 5.10036 6.89153 4.90036 7.2332 4.7587L8.11653 4.40036L8.24987 3.4587L8.41653 2.3337H9.57487L9.7332 3.4587L9.86653 4.40036L10.7499 4.7587C11.1082 4.9087 11.4415 5.10036 11.7749 5.35036L12.5332 5.9337L13.4165 5.57536L14.4749 5.15036L15.0582 6.1587L14.1665 6.86703L13.4249 7.45036L13.5415 8.39203ZM8.99987 5.66703C7.1582 5.66703 5.66653 7.1587 5.66653 9.00036C5.66653 10.842 7.1582 12.3337 8.99987 12.3337C10.8415 12.3337 12.3332 10.842 12.3332 9.00036C12.3332 7.1587 10.8415 5.66703 8.99987 5.66703ZM8.99987 10.667C8.0832 10.667 7.3332 9.91703 7.3332 9.00036C7.3332 8.0837 8.0832 7.3337 8.99987 7.3337C9.91653 7.3337 10.6665 8.0837 10.6665 9.00036C10.6665 9.91703 9.91653 10.667 8.99987 10.667Z" fill="#59598E"/>
</svg>
