<svg width="20" height="20" viewBox="0 0 20 20" fill="none" xmlns="http://www.w3.org/2000/svg">
<path d="M17.4998 13.3333V6.66667C17.5037 6.61397 17.5037 6.56104 17.4998 6.50834C17.5038 6.45842 17.5038 6.40826 17.4998 6.35834C17.466 6.28265 17.4211 6.21243 17.3665 6.15001C17.3508 6.12899 17.3368 6.10669 17.3248 6.08334L17.1915 6C17.1505 5.96478 17.1058 5.93405 17.0582 5.90834H16.9832C16.884 5.86145 16.7761 5.8359 16.6665 5.83334C16.6166 5.82883 16.5664 5.82883 16.5165 5.83334C16.4638 5.82869 16.4108 5.82869 16.3582 5.83334L13.3332 7.10001V6.66667C13.3332 6.00363 13.0698 5.36775 12.6009 4.8989C12.1321 4.43006 11.4962 4.16667 10.8332 4.16667H4.1665C3.50346 4.16667 2.86758 4.43006 2.39874 4.8989C1.9299 5.36775 1.6665 6.00363 1.6665 6.66667V13.3333C1.6665 13.9964 1.9299 14.6323 2.39874 15.1011C2.86758 15.5699 3.50346 15.8333 4.1665 15.8333H10.8332C11.4962 15.8333 12.1321 15.5699 12.6009 15.1011C13.0698 14.6323 13.3332 13.9964 13.3332 13.3333V12.9L16.3415 14.1H16.4915C16.5478 14.1273 16.6063 14.1496 16.6665 14.1667C16.7492 14.1629 16.8308 14.146 16.9082 14.1167H16.9832C17.0308 14.091 17.0755 14.0602 17.1165 14.025L17.2498 13.9417C17.2618 13.9183 17.2758 13.896 17.2915 13.875C17.3461 13.8126 17.391 13.7424 17.4248 13.6667C17.4288 13.6168 17.4288 13.5666 17.4248 13.5167C17.4554 13.458 17.4805 13.3966 17.4998 13.3333ZM10.8332 14.1667H4.1665C3.94549 14.1667 3.73353 14.0789 3.57725 13.9226C3.42097 13.7663 3.33317 13.5544 3.33317 13.3333V6.66667C3.33317 6.44566 3.42097 6.2337 3.57725 6.07742C3.73353 5.92114 3.94549 5.83334 4.1665 5.83334H10.8332C11.0542 5.83334 11.2661 5.92114 11.4224 6.07742C11.5787 6.2337 11.6665 6.44566 11.6665 6.66667V8.33334V11.6667V13.3333C11.6665 13.5544 11.5787 13.7663 11.4224 13.9226C11.2661 14.0789 11.0542 14.1667 10.8332 14.1667ZM13.3332 8.90001L15.8332 7.9V12.0667L13.3332 11.0667V8.90001Z" fill="#59598E"/>
</svg>
